<svg xmlns="http://www.w3.org/2000/svg" width="24" height="24" fill="none"><path fill="#EFF3F5" d="M15.755 8.566a3 3 0 0 1-.228-.137 3.2 3.2 0 0 1-.583-.516 2.9 2.9 0 0 1-.657-1.41h.002A1.8 1.8 0 0 1 14.263 6h-1.982v7.97q.001.16-.004.316l-.002.04-.001.017v.005c-.02.285-.109.562-.257.804-.147.242-.35.443-.59.585-.25.147-.532.225-.82.224-.923 0-1.67-.783-1.67-1.75 0-.966.747-1.75 1.67-1.75.175 0 .35.03.515.085l.003-2.098a3.55 3.55 0 0 0-1.505.122c-.489.149-.942.401-1.332.741a4 4 0 0 0-.848 1.088c-.084.15-.4.753-.438 1.731-.024.555.137 1.13.213 1.368v.005c.048.14.234.618.538 1.02.245.324.534.608.858.843v-.005l.005.005c.96.678 2.023.633 2.023.633.184-.007.801 0 1.501-.345a3.8 3.8 0 0 0 1.22-.953c.282-.34.507-.729.664-1.148.18-.49.239-1.078.239-1.313v-4.228c.024.015.344.235.344.235s.462.308 1.181.508c.516.143 1.212.172 1.212.172V8.883c-.244.027-.739-.053-1.245-.316"/></svg>