<svg xmlns="http://www.w3.org/2000/svg" width="440" height="31" fill="none"><g filter="url(#a)"><path fill="#EFF3F5" d="M.5 1 0 0h440l-1 1-1.5 4-1 2 2 2H437v1l-1 .5h-1c.167.333.4 1 0 1h-2.5l-.5-1-.5.5-1.5.5v.5l1 .5-.5 1.5-1-.5h-1v.5l1 .5-1.5.5-1-.5h-1.5l-1 .5-.5-.5-2-.5-1 .5-1.5.5-.5-.5-1.5-.5-1 .5-.5-1-1-1h-.5v.5l-1 1c.167-.167.5-.4.5 0v.5l-.5.5-2.5-.5-.5-.5-.5-1h-1l-1.5 1-.5-1-.5-1h-2l-.5 1.5h-1l-.5-1-.5-.5-1 .5v1h-1.5V13l-1-.5-1 .5-2-.5-.5 1-1 1-1-.5h-1l-1.5-.5-1 1v.5h-2l-1.5 1h-1l-1-1-.5-1-1.5 1c-.333.167-1 .4-1 0s-.667-1.167-1-1.5l-.5.5v2l-1 .5-.5-1-1 1 .5 1V19l-1 .5-1 1.5-1-.5-.5-.5-1-.5-.5.5v.5h-1l-.5 1-.5-.5-1-.5v-1l-1 .5-.5-.5-1 .5v.5l-1 1-1-.5.5-.5-1.5-.5v1.5h-1.5l-1-.5-1-1-.5 1 .5 1-1 .5-1-.5h-1v.5h-1l-1 1h-1l-.5-1-1 .5-1 .5-.5-.5-.5-1-.5.5-1 .5v-.5c-.5.167-1.5.4-1.5 0s-.333-1.5-.5-2l-.5 1v1l-.5 1v.5l-1 .5-.5-.5h-2l-.5 1 .5 1h-1l.5 1-1-.5-1-1.5-.5.5v1l1 .5-.5 1h-.5l-1-1-.5-.5v1l.5 1c-.333.167-1 .4-1 0v-1h-1v1l-1-.5-.5-1-.5 1-1-.5h-1l-.5-1-1.5.5h-1.5l-.5-.5-.5-.5-.5.5h-.5c.167-.333.4-1 0-1H326V25l-.5-1h-1l-.5-1v1l-1 1-.5-1-.5-.5-1-1 .5-.5v-1l-1 1-.5-.5V21l-1-.5.5 1h-1l-.5-.5-.5.5-.5-.5-.5-.5v1h-1v-1l-.5-.5v1l-1 .5-.5-.5-1-.5V22h-.5l-.5-.5-.5-1-1 .5-1-1-1-.5v1l-1-.5-1.5-1.5-.5-1-1 1h-.5l-.5-1-.5 1-1 .5v-2l-.5 1-.5.5-.5-.5v-.5h-1v-1l-1 .5-1 .5-.5-.5v-1l-1 1v1l-.5-1-.5.5-1 1-.5-.5-2-.5.5.5-.5.5-1.5-1-.5.5v.5l-1.5-.5-.5-1-.5.5.5 1 1.5.5-.5.5v1h-1v-1l-1 .5-1-1-.5-1.5-.5-1h-1l-.5-1-1-1-.5.5v1l.5.5v1l-.5-.5-1-1-.5-1-.5 1v.5l-.5-.5-.5-1-1 .5-.5-1h-1l-.5 1-.5.5-.5 1h-1v.5l.5.5h-1l-.5-.5-.5.5.5.5-1.5-.5v1h-1v.5l-.5.5-1-1-.5.5.5.5h-1l-.5-1v-1l-.5 1v.5h-1V18l-.5 1-1-.5V18l-1 .5V17l-.5-.5-.5 1-.5.5-1-1-.5 1h-.5l-.5-.5-.5.5v.5h-.5l-.5-1-.5.5v.5l-.5-.5-1-.5V17l-.5.5v.5h-.5l-.5-1h-.5v1h-1v-1h-.5l-.5.5-.5-1-.5.5v-1l-.5.5v1l-.5.5-.5-.5v-1h-1l-.5-.5-.5 1-.5-.5-.5.5-.5-.5-1-.5v.5l-.5.5-.5 1h-.5v-1h-.5l-.5.5-.5.5-.5-.5-1-.5v.5l-1 .5.5-.5-1-.5-.5-1h-1l.5.5v.5l-1 .5-.5.5v-1l-.5-.5-1 .5v.5l-.5.5-.5-1h-1v.5l.5 1h-.5l-.5-.5-1-.5v.5l-.5.5-.5-.5-1 .5-.5.5-.5-1-.5-1-.5 1-.5.5h-.5l-1-.5h-.5l-.5 1-.5-.5-.5.5v1h-1l-.5.5-1-1V19l-1-.5-1-1v1l-.5.5-.5 1-1-1-1 .5.5 1-1 .5-1-.5v1l1 .5v1l-.5.5-.5-.5-1-.5v1l.5.5h-1.5l-.5-.5-.5 1-.5.5-1-.5h-1l-.5-1.5-1 .5v-1l-1 .5v.5l-.5-.5v-.5l-.5-.5v1h-.5l-.5-1-.5.5v1l-.5.5v-.5l-.5-1-.5.5h-.5v-1h-1l-.5-1-.5 1v.5h-.5l-.5-1h-.5v.5h-1v-.5l-1-.5v.5H194v.5l-1 .5V22l-.5-.5.5-.5-.5-.5h-.5v.5h-.5l-.5-.5-.5-.5v1l-.5.5-1-.5.5-.5h-1v1l-.5.5v-.5l-.5-.5-.5 1-.5-1h-.5v-1l-.5-.5-.5-1-1-.5v.5l-1-.5v.5l-.5.5v.5l-.5-.5-.5-.5-.5.5-.5-.5h-.5l-.5.5-.5.5-.5-.5v-.5h-.5v.5h-.5l-.5-1.5v-1h-.5l-.5 1-.5-.5-.5-.5v.5l-1 .5v.5h-.5l-.5-.5V17l-.5.5-.5.5-.5.5-.5-1-.5-1v2l-.5.5v-.5l-.5-.5-.5-1h-.5l-.5.5h-.5l-.5-.5-.5.5-.5.5v-1.5l-.5.5v1h-.5l-.5 1-.5-.5-.5-1V19h-1v-1l-.5-.5-.5.5h-.5l-.5-.5v-1h-.5v.5l-.5.5-.5-.5v-.5l-.5.5v.5l-.5.5v-.5l-.5-.5v.5l-.5.5v.5l-.5-.5v-1l-.5.5-1 .5v.5h-.5l-.5-.5v-1h-.5l-.5-1h-.5l-.5.5v-1l-.5-.5-.5.5-.5.5v-1l-.5-.5v1l-.5.5v-1l-.5.5v1l-1-1V15l-1-.5V14h-.5v.5l-.5.5-.5-.5-.5 1v.5h-.5v-.5l-.5-.5-.5.5.5.5-.5.5-.5-.5-.5-1h-.5l-.736-1-.264.5.5.5 1 1-.5.5V16l-1 .5.5.5-.236.25L141 17l-.5-.5h-.5l.5.5v.5l-.5.5v-.75h-.723L139 18l-.178-.75-.322-.75V18l-1 .5v-1l-.251-.25h-.749l.5.75v.5l-.5-.5-.5-.5v1l.5.5-.5.5-.5.5v-1l-.5-.5h-.5l-.5.5 1 .5-.5.5h-.5l-.5-.5v-1L132 18l.5-.5-.757-.25L131 17l-.5-.5.5-.5h-1l-.5.5h-.5V16l-.5.5v.5c-.167.083-.554.25-.772.25s-.243-.167-.228-.25l-.5-.5-.5.5c0 .083-.044.25-.221.25s-.26-.167-.279-.25v-.5l-.5 1v1h-.5V18l-.5-.75v1.25l-1-.5v-1l-.5-.5-.5.5-.5-.5V16l-1-1h-1l1 1v.5h-.5l-.5-.5-.5-.5v1l1 1h-1l-.5-.5v.5l-.5-1v-1l-1 .5v1c-.167 0-.5.1-.5.5s-.333-.5-.5-1h-.5V18l-.5-.5h-.5v-1l-.5.5-.5 1-.5-.5V17l-.5-.5-.5.5v.5l-.5-.5-.5-.5h-.5l-.5.5-1-1-.5.5-.5-1V15h-1v.5l.5.5-1 .5V16h-1l-.5.5-1-.5h-.5l.5-.5-.5-.5-1 1h-.5v-1h-1l-.5.5h-1c-.4 0-.167-.333 0-.5h-1l-.5.5h-1L97 15v1.5h-1.5v2l-.5-1h-.5v.5H93l-.5.5-.5 1h-.5V19H91l-.5 1H90v-.5l-.5 1v.5h-1l-.5-.5h-1v1h-1v-1l-.5 1V23c0 .4-.333-.5-.5-1l-.5-.5.5-.5-.5-.5-1 .5v.5h-1v.5h-1l-1-.5-.5.5 1 .5h.5v1H81v.5h-.5v-1H79v-.5h-1v.5h-.5l-.5-.5h-.5v1L76 23v-.5h-.5v1l-.5.5-.5-.5-.5-.5v.5l-.5.5H73v-.5l-.5-.5-.5 1c-.167.167-.6.5-1 .5s-.167-.333 0-.5h-1l-1 .5v-1h-1l.5.5v.5L68 24h-.5v-.5l-1-.5v.5H66v-1h-.5v1H65V23l-.5-.5-.5.5h-1c-.167-.167-.6-.5-1-.5h.5v-1h-1l-.5.5h-1v-1l-1 .5h-.5v1l-1 .5v-1h-1l-.5.5v-1l-.5-.5-.5-.5h-.5v-1L54 19h-.5v1l-2-2-2-.5-.5-1-1-.5-1.5.5-1-.5-.5-1-1.5 1v-1l-1-.5-1 .5-1.5-1-1-1-1.5-1-.5-1-1-1v1h-1l-1.5-1-.5.5-1-.5V9l-.5-1-1 .5c-.5-.5-1.4-1.6-1-2s-.5.167-1 .5H27c-.4 0-.5-.333-.5-.5L26 7l-1 .5-.5-1-1 .5v1l-1 .5L21 7h-1l-.5-1-2-1-1 .5-1-.5-.5-.5-1.5-1-1 .5h-1l-.5-.5-.5-1L10 2 9 3l-1-.5H7c-.4 0-.5-.333-.5-.5L6 1.5H5L4 1 3.5.5l-1 .5-.5.5-.5-.5z"/></g><defs><filter id="a" width="440" height="30.721" x="0" y="0" color-interpolation-filters="sRGB" filterUnits="userSpaceOnUse"><feFlood flood-opacity="0" result="BackgroundImageFix"/><feColorMatrix in="SourceAlpha" result="hardAlpha" values="0 0 0 0 0 0 0 0 0 0 0 0 0 0 0 0 0 0 127 0"/><feOffset dy="2"/><feComposite in2="hardAlpha" operator="out"/><feColorMatrix values="0 0 0 0 0.882353 0 0 0 0 0.894118 0 0 0 0 0.901961 0 0 0 1 0"/><feBlend in2="BackgroundImageFix" result="effect1_dropShadow_9729_51"/><feBlend in="SourceGraphic" in2="effect1_dropShadow_9729_51" result="shape"/></filter></defs></svg>