<svg xmlns="http://www.w3.org/2000/svg" width="22" height="23" fill="none"><path fill="#0A0F13" d="M16.58 5.92a2.859 2.859 0 0 1-1.638 4.854c-1.34.18-2.966.086-3.922 1.042s-.86 2.582-1.041 3.922a2.86 2.86 0 1 1-3.217-3.217c1.339-.181 2.965-.086 3.921-1.042s.861-2.582 1.042-3.922A2.859 2.859 0 0 1 16.58 5.92"/><path fill="#0A0F13" d="M16.58 17.375a2.86 2.86 0 0 1-4.855-1.637c-.18-1.34-.086-2.966-1.042-3.922s-2.582-.861-3.922-1.042a2.859 2.859 0 1 1 3.217-3.217c.181 1.34.086 2.966 1.042 3.922s2.582.86 3.922 1.042a2.859 2.859 0 0 1 1.637 4.855"/></svg>