<svg xmlns="http://www.w3.org/2000/svg" width="14" height="14" fill="none"><path fill="#0A0F13" d="M1.406 0A1.41 1.41 0 0 0 .073.957c-.062.184-.085.38-.067.575a13.9 13.9 0 0 0 2.161 6.09 13.7 13.7 0 0 0 4.224 4.215 13.95 13.95 0 0 0 6.074 2.158 1.41 1.41 0 0 0 1.417-.837c.078-.18.119-.373.118-.569v-2.107a1.405 1.405 0 0 0-1.211-1.427 9 9 0 0 1-1.979-.491 1.41 1.41 0 0 0-1.485.316l-.893.892a11.25 11.25 0 0 1-4.224-4.215l.895-.892a1.4 1.4 0 0 0 .316-1.483 9 9 0 0 1-.493-1.973A1.405 1.405 0 0 0 3.519 0z"/></svg>