<svg xmlns="http://www.w3.org/2000/svg" width="50" height="52" fill="none"><g filter="url(#a)"><rect width="50" height="50" fill="#EFF3F5" rx="25" shape-rendering="crispEdges"/><ellipse cx="41.331" cy="12.417" fill="#0A0F13" rx="4.139" ry="6.434" transform="rotate(-46.93 41.331 12.417)"/><path fill="#0A0F13" d="M26.092 15.256c1.302-1.393 3.606-1.54 6.037-.622l-2.33 1.925c-1.262 1.35-.584 4.036 1.515 5.998 2.1 1.962 4.824 2.458 6.086 1.108l2.053-2.17c1.07 2.356 1.072 4.653-.226 6.042-2.077 2.222-6.702 1.274-10.33-2.117-3.627-3.39-4.883-7.941-2.805-10.164"/><path fill="#0A0F13" d="M32.275 21.66c1.677 1.568 3.816 2.006 4.776.978a341 341 0 0 1 3.465-4.734c-2.8-1.6-4.5-3.666-5-4.5l-4.538 3.557c-.96 1.027-.38 3.131 1.297 4.7M28.516 26.905c-.5-.334-1.6-1.2-2-2l-3 3.5-.534.8c-.591.887.432 1.96 1.347 1.412l1.187-.713z"/></g><defs><filter id="a" width="50" height="52" x="0" y="0" color-interpolation-filters="sRGB" filterUnits="userSpaceOnUse"><feFlood flood-opacity="0" result="BackgroundImageFix"/><feColorMatrix in="SourceAlpha" result="hardAlpha" values="0 0 0 0 0 0 0 0 0 0 0 0 0 0 0 0 0 0 127 0"/><feOffset dy="2"/><feComposite in2="hardAlpha" operator="out"/><feColorMatrix values="0 0 0 0 0.882353 0 0 0 0 0.894118 0 0 0 0 0.901961 0 0 0 1 0"/><feBlend in2="BackgroundImageFix" result="effect1_dropShadow_9729_52"/><feBlend in="SourceGraphic" in2="effect1_dropShadow_9729_52" result="shape"/></filter></defs></svg>